
      <svg data-logo="logo" xmlns="http://www.w3.org/2000/svg" viewBox="0 0 299 43">
        <g id="logogram" transform="translate(0, 1) rotate(0) "><path d="M16.2956 37.5545C11.6968 42.1326 3.90817 42.1143 1.73302 36.0129C1.30716 34.8183 0.966664 33.59 0.716232 32.3367C-0.306275 27.2194 0.218513 21.9153 2.22424 17.0948C4.22996 12.2746 7.62652 8.15453 11.9844 5.25583C16.3424 2.35714 21.4659 0.809967 26.7071 0.809967C31.9483 0.809967 37.0718 2.35714 41.4296 5.25583C45.7876 8.15453 49.1841 12.2746 51.1899 17.095C53.1956 21.9153 53.7203 27.2194 52.6979 32.3367C52.4475 33.59 52.1069 34.8183 51.681 36.0129C49.5058 42.1143 41.7173 42.1326 37.1185 37.5545L30.0195 30.4877C29.3413 29.8126 29.4114 28.6991 29.5985 27.7627C29.7121 27.1935 29.6538 26.6034 29.4306 26.0671C29.2075 25.5308 28.8297 25.0725 28.3449 24.7501C27.8601 24.4276 27.2901 24.2555 26.7071 24.2555C26.124 24.2555 25.5541 24.4276 25.0693 24.7501C24.5843 25.0725 24.2065 25.5308 23.9834 26.0671C23.7602 26.6034 23.7019 27.1935 23.8157 27.7627C24.0028 28.6991 24.0727 29.8126 23.3945 30.4877L16.2956 37.5545Z" fill="url(#paint0_linear_5557_2015)"/></g>
        <g id="logotype" transform="translate(60, 8.5)"><path fill="#544a4a" d="M7.45 5.68L7.45 1.72L29.40 1.72L29.40 5.68L20.58 5.68L20.58 26L16.27 26L16.27 5.68L7.45 5.68ZM32.91 9.12L33.41 10.02Q36.07 8.79 39.10 8.79L39.10 8.79Q41.03 8.79 42.62 9.53L42.62 9.53L43.22 9.80L41.88 13.30L41.22 13.05Q40.02 12.58 38.62 12.58L38.62 12.58Q36.38 12.58 34.31 13.39L34.31 13.39L34.31 26L30.11 26L30.11 9.12L32.91 9.12ZM50.97 8.79L50.97 8.79Q52.81 8.79 54.21 9.12Q55.60 9.46 56.45 10.00Q57.31 10.55 57.84 11.37Q58.37 12.19 58.56 13.04Q58.76 13.88 58.76 14.93L58.76 14.93L58.76 26L55.62 26L55.14 24.89Q52.87 26.34 49.96 26.34L49.96 26.34Q46.80 26.34 44.83 24.85Q42.87 23.37 42.87 21.33L42.87 21.33Q42.87 20.07 43.51 19.13Q44.15 18.19 45.19 17.63Q46.23 17.06 47.81 16.70Q49.38 16.34 50.96 16.21Q52.54 16.07 54.54 16.05L54.54 16.05L54.54 15.47Q54.54 14.82 54.43 14.40Q54.32 13.97 53.94 13.49Q53.57 13.01 52.69 12.76Q51.81 12.52 50.44 12.52L50.44 12.52Q48.52 12.52 45.36 13.27L45.36 13.27L44.68 13.46L43.81 10.09L44.41 9.88Q47.57 8.79 50.97 8.79ZM54.54 21.64L54.54 21.64L54.54 19.23L54.13 19.23Q50.68 19.23 48.99 19.64Q47.31 20.05 47.31 21.03L47.31 21.03Q47.31 21.64 48.34 22.19Q49.36 22.74 50.85 22.74L50.85 22.74Q52.95 22.74 54.54 21.64ZM74.22 9.12L78.63 9.12L71.98 26L67.45 26L60.50 9.12L65.35 9.12L69.83 21.56L74.22 9.12ZM88.71 8.79L88.71 8.79Q90.18 8.79 91.35 9.11Q92.52 9.42 93.28 9.91Q94.04 10.40 94.59 11.17Q95.15 11.95 95.44 12.66Q95.73 13.37 95.89 14.36Q96.06 15.35 96.09 16.04Q96.12 16.72 96.12 17.66L96.12 17.66L96.12 19.57L83.43 19.57Q83.79 20.84 85.46 21.77Q87.14 22.70 89.87 22.70L89.87 22.70Q91.80 22.70 93.80 22.12L93.80 22.12L94.50 21.92L95.34 25.16L94.72 25.37Q91.87 26.34 88.64 26.34L88.64 26.34Q86.38 26.34 84.64 25.85Q82.90 25.35 81.85 24.56Q80.79 23.78 80.12 22.67Q79.44 21.56 79.19 20.45Q78.93 19.33 78.93 18.07L78.93 18.07Q78.93 16.19 79.47 14.63Q80.01 13.06 80.94 11.99Q81.87 10.93 83.13 10.19Q84.38 9.46 85.78 9.12Q87.19 8.79 88.71 8.79ZM88.01 12.62L88.01 12.62Q86.04 12.62 84.86 13.60Q83.68 14.58 83.46 16.05L83.46 16.05L91.99 16.05Q91.85 14.21 90.83 13.41Q89.80 12.62 88.01 12.62ZM99.31 26L99.31 0.18L103.52 0.18L103.52 26L99.31 26ZM116.56 26L116.56 1.72L125.28 1.72Q126.03 1.72 126.56 1.72Q127.09 1.73 127.97 1.80Q128.85 1.87 129.49 2.00Q130.13 2.13 130.96 2.36Q131.79 2.60 132.38 2.94Q132.97 3.27 133.59 3.80Q134.22 4.33 134.59 4.99Q134.97 5.65 135.22 6.55Q135.46 7.46 135.46 8.55L135.46 8.55Q135.46 10.09 135.06 11.32Q134.66 12.55 134.02 13.39Q133.38 14.23 132.38 14.83Q131.38 15.44 130.36 15.78Q129.35 16.12 128.00 16.32Q126.65 16.52 125.53 16.57Q124.41 16.63 122.97 16.63L122.97 16.63Q122.27 16.63 120.87 16.57L120.87 16.57L120.87 26L116.56 26ZM124.41 5.68L120.87 5.68L120.87 12.60Q122.20 12.69 123.28 12.69L123.28 12.69Q124.44 12.69 125.29 12.64Q126.13 12.60 127.10 12.48Q128.06 12.36 128.72 12.11Q129.38 11.85 129.94 11.46Q130.51 11.06 130.79 10.45Q131.07 9.83 131.07 9.01L131.07 9.01Q131.07 8.28 130.83 7.72Q130.59 7.17 130.11 6.82Q129.62 6.47 129.05 6.23Q128.47 5.99 127.66 5.88Q126.85 5.77 126.12 5.72Q125.38 5.68 124.41 5.68L124.41 5.68ZM138.26 26L138.26 0.18L142.46 0.18L142.46 26L138.26 26ZM153.64 8.79L153.64 8.79Q155.48 8.79 156.87 9.12Q158.27 9.46 159.12 10.00Q159.98 10.55 160.51 11.37Q161.03 12.19 161.23 13.04Q161.43 13.88 161.43 14.93L161.43 14.93L161.43 26L158.28 26L157.80 24.89Q155.53 26.34 152.63 26.34L152.63 26.34Q149.47 26.34 147.50 24.85Q145.53 23.37 145.53 21.33L145.53 21.33Q145.53 20.07 146.18 19.13Q146.82 18.19 147.86 17.63Q148.90 17.06 150.47 16.70Q152.05 16.34 153.63 16.21Q155.21 16.07 157.21 16.05L157.21 16.05L157.21 15.47Q157.21 14.82 157.10 14.40Q156.98 13.97 156.61 13.49Q156.23 13.01 155.35 12.76Q154.47 12.52 153.11 12.52L153.11 12.52Q151.19 12.52 148.03 13.27L148.03 13.27L147.35 13.46L146.47 10.09L147.07 9.88Q150.23 8.79 153.64 8.79ZM157.21 21.64L157.21 21.64L157.21 19.23L156.80 19.23Q153.34 19.23 151.66 19.64Q149.98 20.05 149.98 21.03L149.98 21.03Q149.98 21.64 151.00 22.19Q152.03 22.74 153.52 22.74L153.52 22.74Q155.62 22.74 157.21 21.64ZM165.13 26L165.13 9.12L168.07 9.12L168.65 10.28Q172.17 8.77 175.20 8.77L175.20 8.77Q176.84 8.77 178.03 9.22Q179.23 9.66 179.91 10.33Q180.60 11.00 181.00 12.01Q181.40 13.03 181.52 13.95Q181.64 14.87 181.64 16.04L181.64 16.04L181.64 26L177.44 26L177.44 16.09Q177.44 15.61 177.39 15.26Q177.35 14.91 177.14 14.39Q176.94 13.87 176.58 13.53Q176.22 13.20 175.50 12.95Q174.77 12.70 173.78 12.70L173.78 12.70Q171.78 12.70 169.33 13.64L169.33 13.64L169.33 26L165.13 26ZM185.34 26L185.34 9.12L188.28 9.12L188.86 10.28Q192.38 8.77 195.41 8.77L195.41 8.77Q197.05 8.77 198.24 9.22Q199.44 9.66 200.12 10.33Q200.81 11.00 201.21 12.01Q201.61 13.03 201.73 13.95Q201.85 14.87 201.85 16.04L201.85 16.04L201.85 26L197.65 26L197.65 16.09Q197.65 15.61 197.60 15.26Q197.56 14.91 197.36 14.39Q197.15 13.87 196.79 13.53Q196.43 13.20 195.71 12.95Q194.98 12.70 193.99 12.70L193.99 12.70Q191.99 12.70 189.55 13.64L189.55 13.64L189.55 26L185.34 26ZM214.47 8.79L214.47 8.79Q215.94 8.79 217.11 9.11Q218.28 9.42 219.05 9.91Q219.81 10.40 220.36 11.17Q220.92 11.95 221.21 12.66Q221.50 13.37 221.66 14.36Q221.82 15.35 221.86 16.04Q221.89 16.72 221.89 17.66L221.89 17.66L221.89 19.57L209.19 19.57Q209.55 20.84 211.23 21.77Q212.90 22.70 215.64 22.70L215.64 22.70Q217.57 22.70 219.57 22.12L219.57 22.12L220.27 21.92L221.10 25.16L220.49 25.37Q217.64 26.34 214.41 26.34L214.41 26.34Q212.15 26.34 210.41 25.85Q208.66 25.35 207.61 24.56Q206.56 23.78 205.89 22.67Q205.21 21.56 204.95 20.45Q204.70 19.33 204.70 18.07L204.70 18.07Q204.70 16.19 205.24 14.63Q205.77 13.06 206.71 11.99Q207.64 10.93 208.89 10.19Q210.15 9.46 211.55 9.12Q212.95 8.79 214.47 8.79ZM213.77 12.62L213.77 12.62Q211.81 12.62 210.63 13.60Q209.45 14.58 209.23 16.05L209.23 16.05L217.75 16.05Q217.62 14.21 216.59 13.41Q215.57 12.62 213.77 12.62ZM227.54 9.12L228.04 10.02Q230.70 8.79 233.73 8.79L233.73 8.79Q235.66 8.79 237.25 9.53L237.25 9.53L237.85 9.80L236.51 13.30L235.85 13.05Q234.65 12.58 233.25 12.58L233.25 12.58Q231.01 12.58 228.94 13.39L228.94 13.39L228.94 26L224.74 26L224.74 9.12L227.54 9.12Z"/></g>
        <defs xmlns="http://www.w3.org/2000/svg">
<linearGradient id="paint0_linear_5557_2015" x1="50.7948" y1="14.0001" x2="3.75737" y2="14.0001" gradientUnits="userSpaceOnUse">
<stop stop-color="#64C2DB"/>
<stop offset="0.510417" stop-color="#7476ED"/>
<stop offset="1" stop-color="#E56F8C"/>
</linearGradient>
</defs>
      </svg>
    